<?xml version="1.0" encoding="UTF-8"?>
<!DOCTYPE svg PUBLIC "-//W3C//DTD SVG 1.1//EN" "http://www.w3.org/Graphics/SVG/1.1/DTD/svg11.dtd">
<!-- Creator: CorelDRAW X7 -->
<svg xmlns="http://www.w3.org/2000/svg" xml:space="preserve" width="500px" height="500px" version="1.1" style="shape-rendering:geometricPrecision; text-rendering:geometricPrecision; image-rendering:optimizeQuality; fill-rule:evenodd; clip-rule:evenodd"
viewBox="0 0 500 500"
 xmlns:xlink="http://www.w3.org/1999/xlink">
 <defs>
  <style type="text/css">
   <![CDATA[
    .str64 {stroke:#035CD4;stroke-width:1.5}
    .str26 {stroke:#03D6C9;stroke-width:1.5}
    .str66 {stroke:#0DAD45;stroke-width:1.5}
    .str1 {stroke:#17006E;stroke-width:1.5}
    .str8 {stroke:#173308;stroke-width:1.5}
    .str19 {stroke:#17998C;stroke-width:1.5}
    .str7 {stroke:#21338C;stroke-width:1.5}
    .str65 {stroke:#2B29AB;stroke-width:1.5}
    .str2 {stroke:#369959;stroke-width:1.5}
    .str49 {stroke:#36D659;stroke-width:1.5}
    .str50 {stroke:#404759;stroke-width:1.5}
    .str15 {stroke:#40AD4F;stroke-width:1.5}
    .str17 {stroke:#4A1F26;stroke-width:1.5}
    .str71 {stroke:#4A3D59;stroke-width:1.5}
    .str35 {stroke:#4AB8F2;stroke-width:1.5}
    .str60 {stroke:#545226;stroke-width:1.5}
    .str56 {stroke:#54AD30;stroke-width:1.5}
    .str38 {stroke:#54B8FC;stroke-width:1.5}
    .str72 {stroke:#54EBE8;stroke-width:1.5}
    .str70 {stroke:#54F51C;stroke-width:1.5}
    .str0 {stroke:#5E2945;stroke-width:1.5}
    .str47 {stroke:#5E7AAB;stroke-width:1.5}
    .str51 {stroke:#5EF5D4;stroke-width:1.5}
    .str33 {stroke:#697A59;stroke-width:1.5}
    .str21 {stroke:#69D6BF;stroke-width:1.5}
    .str23 {stroke:#73668C;stroke-width:1.5}
    .str55 {stroke:#737A8C;stroke-width:1.5}
    .str48 {stroke:#73C2AB;stroke-width:1.5}
    .str24 {stroke:#7D29B5;stroke-width:1.5}
    .str12 {stroke:#7D3326;stroke-width:1.5}
    .str22 {stroke:#7D7AAB;stroke-width:1.5}
    .str13 {stroke:#7D8545;stroke-width:1.5}
    .str4 {stroke:#7DAD63;stroke-width:1.5}
    .str31 {stroke:#7DE012;stroke-width:1.5}
    .str39 {stroke:#7DE08C;stroke-width:1.5}
    .str68 {stroke:#7DF58C;stroke-width:1.5}
    .str9 {stroke:#870026;stroke-width:1.5}
    .str37 {stroke:#8733D4;stroke-width:1.5}
    .str54 {stroke:#876678;stroke-width:1.5}
    .str57 {stroke:#877082;stroke-width:1.5}
    .str6 {stroke:#8785DE;stroke-width:1.5}
    .str20 {stroke:#87B808;stroke-width:1.5}
    .str16 {stroke:#87E0FC;stroke-width:1.5}
    .str53 {stroke:#910AE8;stroke-width:1.5}
    .str52 {stroke:#915C78;stroke-width:1.5}
    .str27 {stroke:#91E008;stroke-width:1.5}
    .str58 {stroke:#9C1FFC;stroke-width:1.5}
    .str11 {stroke:#A63DBF;stroke-width:1.5}
    .str18 {stroke:#A6B826;stroke-width:1.5}
    .str61 {stroke:#A6CC78;stroke-width:1.5}
    .str40 {stroke:#B0143B;stroke-width:1.5}
    .str5 {stroke:#B0A38C;stroke-width:1.5}
    .str45 {stroke:#BA52B5;stroke-width:1.5}
    .str29 {stroke:#BA853B;stroke-width:1.5}
    .str34 {stroke:#C43D08;stroke-width:1.5}
    .str36 {stroke:#C43DA1;stroke-width:1.5}
    .str63 {stroke:#C47045;stroke-width:1.5}
    .str59 {stroke:#C47A82;stroke-width:1.5}
    .str43 {stroke:#C48582;stroke-width:1.5}
    .str14 {stroke:#C4CC12;stroke-width:1.5}
    .str10 {stroke:#CF14DE;stroke-width:1.5}
    .str46 {stroke:#CF701C;stroke-width:1.5}
    .str30 {stroke:#CFD61C;stroke-width:1.5}
    .str42 {stroke:#D947D4;stroke-width:1.5}
    .str69 {stroke:#D95C59;stroke-width:1.5}
    .str32 {stroke:#E30A78;stroke-width:1.5}
    .str3 {stroke:#E35CDE;stroke-width:1.5}
    .str62 {stroke:#E370D4;stroke-width:1.5}
    .str25 {stroke:#ED5CE8;stroke-width:1.5}
    .str44 {stroke:#EDC245;stroke-width:1.5}
    .str41 {stroke:#F70A63;stroke-width:1.5}
    .str67 {stroke:#F7521C;stroke-width:1.5}
    .str28 {stroke:#F77ABF;stroke-width:1.5}
    .fil0 {fill:none}
   ]]>
  </style>
    <clipPath id="id0">
     <path d="M7 4l486 0 0 486 -486 0 0 -486z"/>
    </clipPath>
    <clipPath id="id1">
     <path d="M7 4l486 0 0 486 -486 0 0 -486z"/>
    </clipPath>
    <clipPath id="id2">
     <path d="M7 4l486 0 0 486 -486 0 0 -486z"/>
    </clipPath>
 </defs>
 <g id="Layer_x0020_1">
  <metadata id="CorelCorpID_0Corel-Layer"/>
  <g>
   <g style="clip-path:url(#id0)">
   </g>
   <g style="clip-path:url(#id1)">
    <line class="fil0 str0" x1="249" y1="743" x2="-247" y2= "247" />
    <line id="1" class="fil0 str1" x1="262" y1="730" x2="-234" y2= "233" />
    <line id="2" class="fil0 str2" x1="268" y1="724" x2="-228" y2= "228" />
    <line id="3" class="fil0 str3" x1="281" y1="711" x2="-215" y2= "215" />
    <line id="4" class="fil0 str4" x1="292" y1="700" x2="-204" y2= "204" />
    <line id="5" class="fil0 str5" x1="299" y1="693" x2="-198" y2= "197" />
    <line id="6" class="fil0 str6" x1="304" y1="688" x2="-193" y2= "192" />
    <line id="7" class="fil0 str7" x1="304" y1="688" x2="-193" y2= "192" />
    <line id="8" class="fil0 str8" x1="311" y1="681" x2="-185" y2= "185" />
    <line id="9" class="fil0 str9" x1="325" y1="667" x2="-171" y2= "170" />
    <line id="10" class="fil0 str10" x1="337" y1="655" x2="-159" y2= "159" />
    <line id="11" class="fil0 str11" x1="339" y1="653" x2="-157" y2= "157" />
    <line id="12" class="fil0 str12" x1="349" y1="643" x2="-148" y2= "147" />
    <line id="13" class="fil0 str13" x1="354" y1="638" x2="-143" y2= "142" />
    <line id="14" class="fil0 str14" x1="365" y1="627" x2="-131" y2= "130" />
    <line id="15" class="fil0 str15" x1="377" y1="615" x2="-119" y2= "119" />
    <line id="16" class="fil0 str16" x1="393" y1="599" x2="-104" y2= "103" />
    <line id="17" class="fil0 str17" x1="394" y1="598" x2="-102" y2= "102" />
    <line id="18" class="fil0 str18" x1="405" y1="587" x2="-91" y2= "90" />
    <line id="19" class="fil0 str19" x1="419" y1="573" x2="-78" y2= "77" />
    <line id="20" class="fil0 str20" x1="422" y1="570" x2="-74" y2= "74" />
    <line id="21" class="fil0 str21" x1="434" y1="558" x2="-62" y2= "62" />
    <line id="22" class="fil0 str22" x1="435" y1="557" x2="-62" y2= "61" />
    <line id="23" class="fil0 str23" x1="438" y1="554" x2="-58" y2= "57" />
    <line id="24" class="fil0 str24" x1="439" y1="553" x2="-57" y2= "57" />
    <line id="25" class="fil0 str25" x1="455" y1="537" x2="-41" y2= "41" />
    <line id="26" class="fil0 str26" x1="463" y1="529" x2="-34" y2= "33" />
    <line id="27" class="fil0 str27" x1="468" y1="524" x2="-28" y2= "28" />
    <line id="28" class="fil0 str28" x1="469" y1="523" x2="-27" y2= "27" />
    <line id="29" class="fil0 str29" x1="474" y1="518" x2="-22" y2= "21" />
    <line id="30" class="fil0 str30" x1="476" y1="516" x2="-20" y2= "20" />
    <line id="31" class="fil0 str31" x1="489" y1="503" x2="-7" y2= "6" />
    <line id="32" class="fil0 str32" x1="492" y1="500" x2="-4" y2= "4" />
    <line id="33" class="fil0 str33" x1="506" y1="486" x2="10" y2= "-10" />
    <line id="34" class="fil0 str34" x1="512" y1="480" x2="16" y2= "-16" />
    <line id="35" class="fil0 str35" x1="526" y1="466" x2="29" y2= "-30" />
    <line id="36" class="fil0 str36" x1="537" y1="455" x2="41" y2= "-42" />
    <line id="37" class="fil0 str37" x1="539" y1="453" x2="43" y2= "-43" />
    <line id="38" class="fil0 str38" x1="539" y1="453" x2="43" y2= "-43" />
    <line id="39" class="fil0 str39" x1="544" y1="448" x2="47" y2= "-48" />
    <line id="40" class="fil0 str40" x1="552" y1="440" x2="56" y2= "-56" />
    <line id="41" class="fil0 str41" x1="556" y1="436" x2="60" y2= "-61" />
    <line id="42" class="fil0 str42" x1="561" y1="431" x2="65" y2= "-65" />
    <line id="43" class="fil0 str43" x1="566" y1="426" x2="70" y2= "-71" />
    <line id="44" class="fil0 str44" x1="568" y1="424" x2="72" y2= "-73" />
    <line id="45" class="fil0 str45" x1="583" y1="409" x2="87" y2= "-87" />
    <line id="46" class="fil0 str46" x1="590" y1="402" x2="94" y2= "-94" />
    <line id="47" class="fil0 str47" x1="597" y1="395" x2="101" y2= "-101" />
    <line id="48" class="fil0 str48" x1="611" y1="381" x2="115" y2= "-115" />
    <line id="49" class="fil0 str49" x1="622" y1="370" x2="126" y2= "-126" />
    <line id="50" class="fil0 str50" x1="630" y1="362" x2="134" y2= "-135" />
    <line id="51" class="fil0 str51" x1="640" y1="352" x2="144" y2= "-144" />
    <line id="52" class="fil0 str52" x1="641" y1="351" x2="145" y2= "-146" />
    <line id="53" class="fil0 str53" x1="649" y1="343" x2="153" y2= "-153" />
    <line id="54" class="fil0 str54" x1="650" y1="342" x2="153" y2= "-154" />
    <line id="55" class="fil0 str55" x1="657" y1="335" x2="161" y2= "-161" />
    <line id="56" class="fil0 str56" x1="672" y1="320" x2="176" y2= "-176" />
    <line id="57" class="fil0 str57" x1="678" y1="314" x2="182" y2= "-183" />
    <line id="58" class="fil0 str58" x1="681" y1="311" x2="185" y2= "-185" />
    <line id="59" class="fil0 str59" x1="686" y1="306" x2="190" y2= "-190" />
    <line id="60" class="fil0 str60" x1="687" y1="305" x2="191" y2= "-191" />
    <line id="61" class="fil0 str61" x1="692" y1="300" x2="196" y2= "-197" />
    <line id="62" class="fil0 str62" x1="693" y1="299" x2="196" y2= "-197" />
    <line id="63" class="fil0 str63" x1="694" y1="298" x2="198" y2= "-199" />
    <line id="64" class="fil0 str64" x1="698" y1="294" x2="202" y2= "-202" />
    <line id="65" class="fil0 str65" x1="700" y1="292" x2="204" y2= "-204" />
    <line id="66" class="fil0 str66" x1="704" y1="288" x2="208" y2= "-208" />
    <line id="67" class="fil0 str67" x1="713" y1="279" x2="217" y2= "-217" />
    <line id="68" class="fil0 str68" x1="718" y1="274" x2="222" y2= "-223" />
    <line id="69" class="fil0 str69" x1="724" y1="268" x2="228" y2= "-228" />
    <line id="70" class="fil0 str70" x1="736" y1="256" x2="240" y2= "-241" />
    <line id="71" class="fil0 str71" x1="739" y1="253" x2="242" y2= "-243" />
    <line id="72" class="fil0 str72" x1="749" y1="243" x2="253" y2= "-253" />
   </g>
   <g style="clip-path:url(#id2)">
   </g>
  </g>
 </g>
</svg>
